<?xml version="1.0" encoding="UTF-8"?>
<svg width="162.81pt" height="113.58pt" inkscape:version="1.2.2 (b0a8486541, 2022-12-01)" sodipodi:docname="ncc-illustration.svg" version="1.1" viewBox="0 0 162.81 113.58" xmlns="http://www.w3.org/2000/svg" xmlns:inkscape="http://www.inkscape.org/namespaces/inkscape" xmlns:sodipodi="http://sodipodi.sourceforge.net/DTD/sodipodi-0.dtd" xmlns:xlink="http://www.w3.org/1999/xlink">
 <sodipodi:namedview bordercolor="#666666" borderopacity="1.0" inkscape:current-layer="svg446" inkscape:cx="103.2274" inkscape:cy="97.895879" inkscape:deskcolor="#d1d1d1" inkscape:document-units="pt" inkscape:pagecheckerboard="0" inkscape:pageopacity="0.0" inkscape:showpageshadow="2" inkscape:window-height="1317" inkscape:window-maximized="1" inkscape:window-width="2560" inkscape:window-x="0" inkscape:window-y="0" inkscape:zoom="4.4077443" pagecolor="#ffffff" showgrid="false"/>
 <defs>
  <g id="c">
   <path d="m3.0469-4.0312c0.03125-0.17188 0.125-0.46875 0.125-0.59375 0-0.17188-0.09375-0.26562-0.42188-0.26562-0.375 0-0.375 0.4375-0.45312 0.8125l-0.14062 0.59375c-0.48438 0.35938-0.85938 0.65625-1.1406 1 0.046875 0.14062 0.125 0.21875 0.3125 0.21875 0.21875-0.29688 0.4375-0.46875 0.71875-0.70312l-1.0312 4.5781c-0.0625 0.28125-0.20312 0.39062-0.53125 0.4375l-0.1875 0.03125c-0.046875 0.015625-0.09375 0.03125-0.09375 0.078125v0.20312l0.015625 0.015625s0.67188-0.046875 1.0312-0.046875c0.39062 0 1.0781 0.015625 1.0781 0.015625l0.015625-0.015625v-0.20312c0-0.046875-0.015625-0.078125-0.0625-0.078125l-0.1875-0.03125c-0.15625-0.015625-0.40625-0.078125-0.32812-0.40625l0.4375-1.8438c0.15625 0.17188 0.4375 0.32812 0.73438 0.32812 0.70312 0 1.2812-0.39062 1.7188-0.92188 0.53125-0.65625 0.8125-1.3281 0.8125-2.0469 0-0.84375-0.28125-1.5-1.2812-1.5-0.51562 0-0.875 0.1875-1.1406 0.34375zm1.5938 1.3125c0 0.46875-0.1875 1.1719-0.57812 1.75-0.25 0.42188-0.65625 0.71875-1.0312 0.71875-0.26562 0-0.53125-0.125-0.73438-0.42188l0.65625-2.9062c0.25-0.15625 0.53125-0.34375 0.92188-0.34375 0.67188 0 0.76562 0.71875 0.76562 1.2031z"/>
  </g>
  <g id="b">
   <path d="m0.59375-2.3438h6.5469c-0.32812 0.3125-0.8125 0.84375-1.1094 1.5625 0.0625 0.0625 0.3125 0.0625 0.375 0 0.85938-0.96875 1.6719-1.5156 2.1562-1.6875 0.046875-0.046875 0.046875-0.20312 0-0.25-0.48438-0.15625-1.2969-0.71875-2.1562-1.6875-0.0625-0.0625-0.3125-0.0625-0.375 0 0.29688 0.71875 0.78125 1.25 1.1094 1.5625h-6.5469c-0.125 0.125-0.125 0.375 0 0.5z"/>
  </g>
  <g id="n">
   <path d="m2.2969-0.96875v-2.7656c0-0.48438 0-0.96875 0.015625-1.0781 0-0.03125-0.015625-0.03125-0.046875-0.03125-0.4375 0.26562-0.85938 0.46875-1.5625 0.79688 0.015625 0.09375 0.046875 0.17188 0.125 0.21875 0.35938-0.15625 0.54688-0.20312 0.6875-0.20312s0.17188 0.1875 0.17188 0.46875v2.5938c0 0.65625-0.21875 0.70312-0.78125 0.71875-0.046875 0.046875-0.046875 0.21875 0 0.26562 0.39062 0 0.67188-0.015625 1.1094-0.015625 0.39062 0 0.57812 0.015625 0.96875 0.015625 0.046875-0.046875 0.046875-0.21875 0-0.26562-0.54688-0.015625-0.6875-0.0625-0.6875-0.71875z"/>
  </g>
  <g id="m">
   <path d="m0.48438-3.7344c0 0.17188 0.15625 0.3125 0.32812 0.3125 0.125 0 0.35938-0.14062 0.35938-0.3125 0-0.0625-0.015625-0.10938-0.03125-0.17188-0.015625-0.046875-0.0625-0.125-0.0625-0.1875 0-0.20312 0.21875-0.48438 0.79688-0.48438 0.28125 0 0.6875 0.20312 0.6875 0.95312 0 0.51562-0.1875 0.9375-0.65625 1.4062l-0.57812 0.57812c-0.78125 0.79688-0.90625 1.1875-0.90625 1.6562 0 0 0.40625-0.015625 0.65625-0.015625h1.3906c0.25 0 0.625 0.015625 0.625 0.015625 0.10938-0.42188 0.1875-1.0156 0.1875-1.2656-0.046875-0.03125-0.15625-0.046875-0.23438-0.03125-0.125 0.5625-0.26562 0.76562-0.54688 0.76562h-1.4219c0-0.39062 0.54688-0.92188 0.59375-0.96875l0.79688-0.76562c0.45312-0.4375 0.79688-0.79688 0.79688-1.4062 0-0.85938-0.70312-1.2031-1.3438-1.2031-0.89062 0-1.4375 0.65625-1.4375 1.125z"/>
  </g>
  <g id="l">
   <path d="m1.7188-4.5781c0.34375 0 0.65625 0.20312 0.65625 0.71875 0 0.39062-0.46875 1-1.25 1.125l0.03125 0.25c0.14062-0.015625 0.28125-0.015625 0.39062-0.015625 0.45312 0 1.0469 0.125 1.0469 1.0312 0 1.0469-0.71875 1.2656-0.98438 1.2656-0.42188 0-0.48438-0.17188-0.57812-0.32812-0.078125-0.10938-0.1875-0.20312-0.34375-0.20312-0.17188 0-0.34375 0.15625-0.34375 0.28125 0 0.3125 0.67188 0.53125 1.1562 0.53125 0.95312 0 1.7969-0.60938 1.7969-1.6562 0-0.875-0.65625-1.1875-1.125-1.2656l-0.015625-0.015625c0.65625-0.3125 0.84375-0.64062 0.84375-1.0625 0-0.23438-0.0625-0.42188-0.25-0.625-0.17188-0.17188-0.45312-0.3125-0.875-0.3125-1.1719 0-1.5 0.76562-1.5 1.0312 0 0.10938 0.078125 0.26562 0.26562 0.26562 0.28125 0 0.3125-0.26562 0.3125-0.40625 0-0.51562 0.54688-0.60938 0.76562-0.60938z"/>
  </g>
  <g id="f">
   <path d="m3.4844-1.2188v-3.8125c0-0.625 0.10938-1.0156 0.46875-1.0156h0.21875c0.75 0 1.2188 0.26562 1.375 1.0312 0.10938 0 0.25-0.015625 0.34375-0.046875-0.0625-0.45312-0.125-0.96875-0.125-1.4219l-0.03125-0.03125c-0.34375 0.03125-1.4531 0.078125-2.2344 0.078125h-0.85938c-0.76562 0-1.9375-0.046875-2.3281-0.078125-0.015625 0-0.03125 0.03125-0.03125 0.03125-0.046875 0.45312-0.14062 0.96875-0.25 1.4531 0.09375 0.03125 0.21875 0.046875 0.34375 0.046875 0.1875-0.79688 0.65625-1.0625 1.3125-1.0625h0.48438c0.375 0 0.46875 0.39062 0.46875 1v3.8281c0 0.82812-0.17188 0.875-0.96875 0.90625-0.0625 0.0625-0.0625 0.26562 0 0.32812 0.48438 0 1-0.015625 1.4062-0.015625 0.375 0 0.875 0.015625 1.375 0.015625 0.0625-0.0625 0.0625-0.26562 0-0.32812-0.79688-0.03125-0.96875-0.078125-0.96875-0.90625z"/>
  </g>
  <g id="e">
   <path d="m1.75-3.5625c-0.015625-0.40625-0.03125-0.67188-0.078125-0.76562-0.015625-0.046875-0.03125-0.078125-0.10938-0.078125-0.28125 0.10938-0.54688 0.20312-1.2344 0.29688-0.015625 0.046875 0 0.21875 0.015625 0.26562 0.54688 0.0625 0.65625 0.10938 0.65625 0.6875v1.9375c0 0.82812-0.125 0.875-0.73438 0.90625-0.0625 0.0625-0.0625 0.26562 0 0.32812 0.34375 0 0.73438-0.015625 1.125-0.015625 0.40625 0 0.85938 0.015625 1.2188 0.015625 0.046875-0.0625 0.046875-0.26562 0-0.32812-0.70312-0.046875-0.82812-0.078125-0.82812-0.90625v-1.3906c0-0.25 0.125-0.48438 0.25-0.65625 0.10938-0.15625 0.32812-0.5 0.45312-0.5 0.09375 0 0.17188 0.03125 0.25 0.14062 0.078125 0.09375 0.20312 0.21875 0.35938 0.21875 0.25 0 0.46875-0.25 0.46875-0.48438 0-0.20312-0.17188-0.48438-0.59375-0.48438-0.46875 0-0.875 0.4375-1.1094 0.82812-0.0625 0.10938-0.10938 0.03125-0.10938-0.015625z"/>
  </g>
  <g id="d">
   <path d="m2.1562 0.09375c0.39062 0 0.85938-0.1875 1.3594-0.59375 0.046875-0.03125 0.14062-0.0625 0.14062 0.015625 0.03125 0.25 0.10938 0.57812 0.10938 0.57812 0.078125 0.03125 0.125 0.03125 0.1875 0 0.21875-0.17188 0.57812-0.32812 1.1875-0.39062 0.046875-0.0625 0.046875-0.21875 0-0.26562-0.64062-0.0625-0.73438-0.25-0.73438-0.73438v-1.9062c0-0.3125 0.046875-1.0312 0.046875-1.0312 0-0.03125-0.03125-0.0625-0.09375-0.0625-0.046875 0.015625-0.1875 0.015625-0.34375 0.015625-0.3125 0-0.67188 0-1.0156-0.015625-0.0625 0.0625-0.0625 0.26562 0 0.32812 0.48438 0.03125 0.625 0.15625 0.625 0.8125v1.9219c0 0.1875-0.03125 0.26562-0.17188 0.39062-0.35938 0.3125-0.73438 0.46875-0.98438 0.46875-0.3125 0-0.79688-0.14062-0.79688-1.0156v-1.8125c0-0.3125 0.03125-1.0312 0.03125-1.0312 0-0.03125-0.03125-0.0625-0.078125-0.0625-0.046875 0.015625-0.20312 0.015625-0.34375 0.015625-0.32812 0-0.6875 0-1.0156-0.015625-0.0625 0.0625-0.0625 0.26562 0 0.32812 0.46875 0.046875 0.60938 0.15625 0.60938 0.79688v1.9219c0 0.6875 0.29688 1.3438 1.2812 1.3438z"/>
  </g>
  <g id="a">
   <path d="m3.8438-0.92188c-0.35938 0.375-0.65625 0.53125-1.2344 0.53125-0.35938 0-0.78125-0.20312-1.0781-0.71875-0.20312-0.32812-0.32812-0.78125-0.32812-1.3594l2.6562 0.015625c0.125 0 0.1875-0.0625 0.1875-0.17188 0-0.82812-0.29688-1.7344-1.6875-1.7344-0.85938 0-1.9844 0.82812-1.9844 2.3438 0 0.5625 0.14062 1.0938 0.46875 1.4844s0.79688 0.625 1.5156 0.625c0.76562 0 1.2969-0.34375 1.7031-0.85938-0.03125-0.10938-0.09375-0.15625-0.21875-0.15625zm-2.6094-1.8906c0.1875-1.125 0.89062-1.2188 1.125-1.2188 0.375 0 0.82812 0.21875 0.82812 1.0469 0 0.09375-0.03125 0.14062-0.14062 0.14062z"/>
  </g>
  <g id="k">
   <path d="m5.5469-5.1094v3.2656c0 0.1875 0 0.29688-0.078125 0.29688-0.03125 0-0.1875-0.17188-0.46875-0.54688l-3.4219-4.3438-1.3438-0.015625c-0.0625 0.0625-0.0625 0.26562 0 0.32812 0.42188 0.03125 0.71875 0.39062 0.78125 0.64062v4.1562c0 0.89062-0.17188 0.95312-0.85938 1.0156-0.0625 0.0625-0.0625 0.26562 0 0.32812 0.42188 0 0.875-0.015625 1.1094-0.015625s0.6875 0.015625 1.1094 0.015625c0.0625-0.0625 0.0625-0.26562 0-0.32812-0.70312-0.0625-0.875-0.10938-0.875-1.0156v-3.0469c0-0.34375 0-0.48438 0.078125-0.48438 0.0625 0 0.17188 0.10938 0.34375 0.32812l3.4844 4.3906c0.10938 0.15625 0.23438 0.23438 0.39062 0.23438 0.14062 0 0.23438-0.10938 0.23438-0.29688v-4.9062c0-0.875 0.17188-0.9375 0.85938-1.0156 0.0625-0.0625 0.0625-0.26562 0-0.32812-0.40625 0.015625-0.875 0.015625-1.1094 0.015625-0.20312 0-0.67188 0-1.1094-0.015625-0.0625 0.0625-0.0625 0.26562 0 0.32812 0.70312 0.078125 0.875 0.10938 0.875 1.0156z"/>
  </g>
  <g id="g">
   <path d="m3.5625 0.09375c0.96875 0 1.8438-0.45312 2.5312-1.3438-0.046875-0.078125-0.125-0.14062-0.23438-0.14062-0.70312 0.76562-1.3906 1.0781-2.3125 1.0781-1.3438 0-2.2656-1.5156-2.2656-2.9688 0-0.85938 0.21875-1.5781 0.57812-2.0156 0.5-0.60938 1.0781-0.89062 1.5938-0.89062 1.375 0 1.9375 0.8125 2.1875 1.6719 0.125 0.046875 0.21875 0.015625 0.32812-0.046875-0.046875-0.51562-0.10938-1-0.21875-1.5469-0.5-0.046875-0.95312-0.45312-2.1875-0.45312-0.84375 0-1.5469 0.3125-2.1406 0.84375-0.65625 0.60938-1.0469 1.5938-1.0469 2.625 0 1.7344 1.0469 3.1875 3.1875 3.1875z"/>
  </g>
  <g id="h">
   <path d="m4.625-3.0781c0.125 0 0.26562-0.23438 0.26562-0.32812 0-0.078125-0.03125-0.17188-0.14062-0.17188h-3.9062c-0.10938 0-0.25 0.1875-0.25 0.34375 0 0.078125 0.0625 0.15625 0.15625 0.15625zm0 1.6562c0.125 0 0.26562-0.23438 0.26562-0.32812 0-0.078125-0.03125-0.17188-0.14062-0.17188h-3.9062c-0.10938 0-0.25 0.1875-0.25 0.34375 0 0.078125 0.0625 0.15625 0.15625 0.15625z"/>
  </g>
  <g id="j">
   <path d="m2.875-1.2188v-3.4531c0-0.60938 0-1.2031 0.03125-1.3438 0-0.046875-0.03125-0.046875-0.0625-0.046875-0.54688 0.34375-1.0781 0.59375-1.9531 1 0.015625 0.10938 0.0625 0.20312 0.14062 0.26562 0.46875-0.1875 0.6875-0.25 0.875-0.25 0.17188 0 0.20312 0.23438 0.20312 0.57812v3.25c0 0.82812-0.28125 0.875-0.96875 0.90625-0.0625 0.0625-0.0625 0.26562 0 0.32812 0.48438 0 0.84375-0.015625 1.375-0.015625 0.48438 0 0.71875 0.015625 1.2188 0.015625 0.0625-0.0625 0.0625-0.26562 0-0.32812-0.6875-0.03125-0.85938-0.078125-0.85938-0.90625z"/>
  </g>
  <g id="i">
   <path d="m2.9219-6.4375h-0.40625l-2.3594 7.0312h0.40625z"/>
  </g>
  <g id="t">
   <path d="m0.60938-4.6719c0 0.21875 0.1875 0.39062 0.39062 0.39062 0.17188 0 0.46875-0.17188 0.46875-0.39062 0-0.078125-0.015625-0.14062-0.03125-0.21875-0.015625-0.0625-0.078125-0.15625-0.078125-0.23438 0-0.25 0.25-0.60938 0.98438-0.60938 0.35938 0 0.85938 0.25 0.85938 1.2031 0 0.64062-0.21875 1.1562-0.8125 1.7656l-0.73438 0.71875c-0.98438 1-1.1406 1.4844-1.1406 2.0625 0 0 0.51562-0.015625 0.82812-0.015625h1.75c0.3125 0 0.78125 0.015625 0.78125 0.015625 0.125-0.53125 0.21875-1.2656 0.23438-1.5781-0.0625-0.046875-0.1875-0.0625-0.29688-0.046875-0.15625 0.71875-0.32812 0.96875-0.6875 0.96875h-1.7812c0-0.48438 0.6875-1.1562 0.73438-1.2188l1.0156-0.96875c0.5625-0.54688 1-0.98438 1-1.7344 0-1.0781-0.89062-1.5156-1.6875-1.5156-1.1094 0-1.7969 0.8125-1.7969 1.4062z"/>
  </g>
  <g id="s">
   <path d="m2.8281-3.2188c0.84375 0 0.875 0.23438 0.90625 0.67188 0.046875 0.0625 0.26562 0.0625 0.32812 0-0.015625-0.25-0.03125-0.53125-0.03125-0.875s0.015625-0.59375 0.03125-0.85938c-0.0625-0.0625-0.28125-0.0625-0.32812 0-0.03125 0.54688-0.0625 0.6875-0.90625 0.6875h-0.9375v-1.7969c0-0.54688 0.125-0.64062 0.5625-0.64062h0.45312c1.0469 0 1.2969 0.40625 1.5156 1.0938 0.125 0 0.23438-0.03125 0.3125-0.0625-0.046875-0.40625-0.20312-1.3594-0.21875-1.4375 0-0.015625-0.015625-0.03125-0.046875-0.03125-0.15625 0.03125-0.21875 0.03125-0.46875 0.03125h-2.5312c-0.32812 0-0.89062 0-1.2969-0.015625-0.046875 0.0625-0.046875 0.26562 0 0.32812 0.70312 0.03125 0.875 0.078125 0.875 0.90625v4c0 0.82812-0.17188 0.875-0.875 0.90625-0.046875 0.0625-0.046875 0.26562 0 0.32812 0.35938 0 0.85938-0.015625 1.2969-0.015625 0.45312 0 0.9375 0.015625 1.2969 0.015625 0.0625-0.0625 0.0625-0.26562 0-0.32812-0.70312-0.03125-0.875-0.078125-0.875-0.90625v-2z"/>
  </g>
  <g id="r">
   <path d="m2.9219-0.48438c0.0625 0.3125 0.17188 0.57812 0.67188 0.57812 0.375 0 0.73438-0.15625 0.9375-0.35938-0.015625-0.125-0.0625-0.21875-0.17188-0.26562-0.0625 0.046875-0.23438 0.15625-0.35938 0.15625-0.29688 0-0.29688-0.39062-0.29688-0.84375v-1.4688c0-1.4219-0.78125-1.6875-1.5156-1.6875-0.8125 0-1.6406 0.53125-1.6406 1.1094 0 0.23438 0.125 0.35938 0.34375 0.35938 0.29688 0 0.46875-0.21875 0.46875-0.34375 0-0.0625 0-0.14062-0.03125-0.17188 0-0.03125-0.015625-0.09375-0.015625-0.20312 0-0.3125 0.42188-0.42188 0.79688-0.42188 0.34375 0 0.8125 0.17188 0.8125 1.2969 0 0.0625-0.03125 0.10938-0.0625 0.125l-0.85938 0.20312c-0.95312 0.23438-1.6406 0.76562-1.6406 1.4375 0 0.82812 0.5625 1.0781 1.25 1.0781 0.35938 0 0.65625-0.078125 1.0938-0.40625l0.20312-0.17188zm0-1.8438v1.3281c0 0.125-0.0625 0.1875-0.14062 0.25-0.26562 0.21875-0.59375 0.4375-0.875 0.4375-0.5 0-0.71875-0.39062-0.71875-0.70312 0-0.45312 0.20312-0.90625 0.95312-1.0938z"/>
  </g>
  <g id="q">
   <path d="m0.95312-1.2188c0 0.82812-0.10938 0.875-0.71875 0.90625-0.0625 0.0625-0.0625 0.26562 0 0.32812 0.34375 0 0.71875-0.015625 1.1094-0.015625 0.40625 0 0.78125 0.015625 1.1094 0.015625 0.0625-0.0625 0.0625-0.26562 0-0.32812-0.60938-0.03125-0.71875-0.078125-0.71875-0.90625v-4.5938c0-0.64062 0.046875-1.0469 0.046875-1.0469 0-0.0625-0.046875-0.09375-0.14062-0.09375-0.25 0.09375-1 0.23438-1.3906 0.26562-0.015625 0.078125 0 0.23438 0.0625 0.29688 0.57812 0.046875 0.64062 0.078125 0.64062 0.8125z"/>
  </g>
  <g id="p">
   <path d="m0.48438-1.375c0.03125 0.48438 0.0625 0.95312 0.0625 1.375 0.09375-0.015625 0.20312-0.03125 0.25-0.03125 0.078125 0 0.125 0 0.20312 0.015625 0.26562 0.078125 0.53125 0.10938 0.90625 0.10938 0.5625 0 1.5781-0.26562 1.5781-1.25 0-0.67188-0.48438-1.0781-1.1562-1.3281-0.60938-0.23438-1-0.375-1-0.92188 0-0.40625 0.35938-0.64062 0.70312-0.64062 0.21875 0 0.79688 0.078125 0.92188 0.92188 0.0625 0.0625 0.25 0.046875 0.3125 0 0.03125-0.35938 0.046875-0.73438 0.0625-1.0625-0.3125-0.046875-0.78125-0.1875-1.2969-0.1875-0.75 0-1.4062 0.48438-1.4062 1.1094 0 0.73438 0.32812 1.0469 1.0938 1.3594 0.82812 0.34375 1.0156 0.54688 1.0156 0.98438 0 0.48438-0.48438 0.6875-0.84375 0.6875-0.39062 0-0.60938-0.125-0.71875-0.23438-0.21875-0.23438-0.32812-0.67188-0.39062-0.92188-0.046875-0.0625-0.25-0.046875-0.29688 0.015625z"/>
  </g>
  <g id="o">
   <path d="m2.1406-5.7344c0.4375 0 0.82812 0.26562 0.82812 0.90625 0 0.48438-0.57812 1.2656-1.5625 1.4062l0.046875 0.3125c0.17188-0.015625 0.34375-0.015625 0.48438-0.015625 0.5625 0 1.2969 0.15625 1.2969 1.2812 0 1.3281-0.875 1.5938-1.2344 1.5938-0.5 0-0.59375-0.23438-0.71875-0.40625-0.09375-0.14062-0.21875-0.26562-0.42188-0.26562-0.21875 0-0.42188 0.1875-0.42188 0.35938 0 0.39062 0.84375 0.65625 1.4375 0.65625 1.1875 0 2.2344-0.76562 2.2344-2.0781 0-1.0938-0.8125-1.4688-1.3906-1.5781l-0.015625-0.015625c0.8125-0.39062 1.0469-0.79688 1.0469-1.3281 0-0.29688-0.078125-0.53125-0.3125-0.78125-0.21875-0.21875-0.5625-0.39062-1.0781-0.39062-1.4688 0-1.8906 0.95312-1.8906 1.2812 0 0.14062 0.09375 0.34375 0.34375 0.34375 0.34375 0 0.39062-0.32812 0.39062-0.51562 0-0.64062 0.6875-0.76562 0.9375-0.76562z"/>
  </g>
  <g id="ad">
   <path d="m6.1562-1.2188v-4c0-0.82812 0.17188-0.875 0.875-0.90625 0.0625-0.0625 0.0625-0.26562 0-0.32812-0.40625 0.015625-0.92188 0.015625-1.2969 0.015625s-0.84375 0-1.2812-0.015625c-0.0625 0.0625-0.0625 0.26562 0 0.32812 0.6875 0.03125 0.85938 0.078125 0.85938 0.90625v1.5938h-3.4062v-1.5938c0-0.82812 0.17188-0.875 0.85938-0.90625 0.0625-0.0625 0.0625-0.26562 0-0.32812-0.375 0.015625-0.78125 0.015625-1.2969 0.015625-0.48438 0-0.90625 0-1.2812-0.015625-0.0625 0.0625-0.0625 0.26562 0 0.32812 0.70312 0.03125 0.875 0.078125 0.875 0.90625v4c0 0.82812-0.17188 0.875-0.875 0.90625-0.0625 0.0625-0.0625 0.26562 0 0.32812 0.4375 0 0.92188-0.015625 1.2969-0.015625 0.35938 0 0.84375 0.015625 1.2812 0.015625 0.0625-0.0625 0.0625-0.26562 0-0.32812-0.6875-0.03125-0.85938-0.078125-0.85938-0.90625v-1.9844h3.4062v1.9844c0 0.82812-0.17188 0.875-0.85938 0.90625-0.0625 0.0625-0.0625 0.26562 0 0.32812 0.4375 0 0.92188-0.015625 1.2812-0.015625 0.375 0 0.85938 0.015625 1.2969 0.015625 0.0625-0.0625 0.0625-0.26562 0-0.32812-0.70312-0.03125-0.875-0.078125-0.875-0.90625z"/>
  </g>
  <g id="ac">
   <path d="m1.4688-6.4375c-0.35938 0-0.875 0-1.2812-0.015625-0.0625 0.0625-0.0625 0.26562 0 0.32812 0.70312 0.03125 0.875 0.078125 0.875 0.90625v4c0 0.82812-0.17188 0.875-0.875 0.90625-0.0625 0.0625-0.0625 0.26562 0 0.32812 0.39062 0 0.92188-0.015625 1.2969-0.015625s0.78125 0.015625 1.8125 0.015625c1.4062 0 3.2656-0.64062 3.2656-3.0938 0-1.8438-1.5312-3.375-3.4375-3.375-0.71875 0-1.2656 0.015625-1.6562 0.015625zm0.4375 5.5938v-4.7812c0-0.34375 0.34375-0.48438 0.82812-0.48438 2.1562 0 2.875 1.75 2.875 3.2812 0 2.0156-1.2188 2.5156-2.625 2.5156-0.96875 0-1.0781-0.20312-1.0781-0.53125z"/>
  </g>
  <g id="ab">
   <path d="m5.0938 3.6719 2.9219-2.7344c0.60938-0.5625 0.75-0.46875 1.25 0.015625 0.09375 0.015625 0.25-0.125 0.25-0.21875-0.29688-0.28125-0.64062-0.65625-0.90625-0.9375-0.25-0.26562-0.5625-0.60938-0.84375-0.95312-0.09375 0-0.25 0.14062-0.25 0.21875 0.45312 0.53125 0.53125 0.6875-0.078125 1.25l-1.1562 1.0938-2.3281-2.4844 1.1562-1.0938c0.60938-0.5625 0.76562-0.46875 1.25 0 0.09375 0.015625 0.25-0.125 0.25-0.21875-0.28125-0.25-0.54688-0.54688-0.90625-0.92188-0.32812-0.35938-0.60938-0.67188-0.85938-0.95312-0.09375 0-0.25 0.14062-0.25 0.21875 0.46875 0.54688 0.54688 0.70312-0.0625 1.2656l-2.9219 2.7344c-0.60938 0.5625-0.75 0.46875-1.25-0.03125-0.09375 0-0.25 0.14062-0.25 0.23438 0.29688 0.3125 0.64062 0.65625 0.90625 0.92188 0.25 0.26562 0.5625 0.64062 0.85938 0.95312 0.09375 0 0.25-0.14062 0.25-0.23438-0.45312-0.51562-0.54688-0.67188 0.0625-1.2344l1.4531-1.3594 2.3281 2.4844-1.4531 1.3594c-0.60938 0.5625-0.75 0.46875-1.2344-0.015625-0.09375 0-0.25 0.14062-0.25 0.23438 0.29688 0.32812 0.64062 0.65625 0.875 0.92188 0.26562 0.28125 0.57812 0.64062 0.875 0.96875 0.09375 0 0.25-0.14062 0.25-0.23438-0.46875-0.53125-0.54688-0.6875 0.0625-1.25z"/>
  </g>
  <g id="aa">
   <path d="m5.7031-3.3125c-0.25-0.26562-0.59375-0.64062-0.85938-0.95312-0.09375 0-0.25 0.14062-0.25 0.21875 0.46875 0.54688 0.54688 0.70312-0.0625 1.2656l-2.9219 2.7344c-0.60938 0.5625-0.75 0.46875-1.25-0.03125-0.09375 0-0.25 0.14062-0.25 0.23438 0.26562 0.28125 0.64062 0.65625 0.90625 0.92188 0.25 0.28125 0.51562 0.59375 1.2188 1.3438 0.95312 1.0312 2.7031 1.9531 4.5 0.28125 1.3438-1.2656 1.4219-3.4375 0.125-4.8281-0.5-0.51562-0.89062-0.90625-1.1562-1.1875zm-3.7969 4.125 3.5-3.2656c0.25-0.23438 0.59375-0.078125 0.92188 0.28125 1.4844 1.5781 0.6875 3.2969-0.4375 4.3281-1.4688 1.3906-2.6562 0.82812-3.625-0.1875-0.65625-0.71875-0.59375-0.9375-0.35938-1.1562z"/>
  </g>
  <g id="z">
   <path d="m5.4062 1.2812c0.078125 0.09375 0.35938 0.03125 0.42188-0.03125 0.0625-0.046875 0.09375-0.14062 0.015625-0.21875l-2.6562-2.8594c-0.078125-0.078125-0.29688-0.046875-0.42188 0.0625-0.046875 0.046875-0.0625 0.15625 0 0.21875zm-1.2031 1.125c0.078125 0.09375 0.34375 0.046875 0.42188-0.015625 0.0625-0.0625 0.09375-0.15625 0.015625-0.23438l-2.6562-2.8594c-0.078125-0.078125-0.3125-0.046875-0.42188 0.0625-0.0625 0.046875-0.0625 0.15625 0 0.21875z"/>
  </g>
  <g id="y">
   <path d="m2.8594 1.2656 2.5312-2.3594c0.4375-0.42188 0.875-0.82812 0.98438-0.89062 0.046875-0.03125 0.03125-0.0625 0-0.078125-0.64062-0.17188-1.1719-0.375-2.0625-0.73438-0.0625 0.078125-0.10938 0.1875-0.10938 0.26562 0.46875 0.21875 0.65625 0.34375 0.78125 0.48438 0.125 0.125-0.03125 0.3125-0.28125 0.54688l-2.375 2.2188c-0.60938 0.5625-0.82812 0.39062-1.3125-0.10938-0.09375 0-0.25 0.14062-0.25 0.23438 0.32812 0.35938 0.59375 0.60938 0.95312 1 0.32812 0.34375 0.46875 0.53125 0.8125 0.90625 0.09375 0 0.25-0.14062 0.25-0.23438-0.45312-0.51562-0.53125-0.6875 0.078125-1.25z"/>
  </g>
  <g id="x">
   <path d="m3.3125-5.3281-2.9219-2.7344c-0.60938-0.5625-0.53125-0.71875-0.0625-1.2656 0-0.078125-0.15625-0.21875-0.25-0.21875-0.26562 0.3125-0.60938 0.6875-0.875 0.96875-0.25 0.26562-0.5625 0.60938-0.875 0.92188 0 0.09375 0.15625 0.23438 0.25 0.21875 0.48438-0.46875 0.625-0.5625 1.2344 0l1.1562 1.0938-2.3281 2.4844-1.1562-1.0938c-0.60938-0.5625-0.51562-0.71875-0.0625-1.25 0-0.078125-0.15625-0.21875-0.25-0.21875-0.25 0.28125-0.51562 0.57812-0.875 0.95312-0.32812 0.35938-0.60938 0.67188-0.89062 0.92188 0 0.09375 0.15625 0.23438 0.25 0.21875 0.5-0.48438 0.64062-0.57812 1.25-0.015625l2.9219 2.7344c0.60938 0.5625 0.53125 0.71875 0.0625 1.25 0 0.09375 0.15625 0.23438 0.25 0.23438 0.29688-0.3125 0.60938-0.6875 0.875-0.95312 0.25-0.26562 0.59375-0.60938 0.89062-0.92188 0-0.09375-0.15625-0.23438-0.25-0.23438-0.48438 0.48438-0.64062 0.57812-1.25 0.015625l-1.4531-1.3594 2.3281-2.4844 1.4531 1.3594c0.60938 0.5625 0.53125 0.71875 0.078125 1.2344 0 0.09375 0.15625 0.23438 0.25 0.23438 0.29688-0.32812 0.60938-0.6875 0.84375-0.95312 0.26562-0.28125 0.60938-0.60938 0.90625-0.9375 0-0.09375-0.15625-0.23438-0.25-0.23438-0.5 0.5-0.64062 0.59375-1.25 0.03125z"/>
  </g>
  <g id="w">
   <path d="m-3.7031-5.4688c-0.25 0.26562-0.59375 0.64062-0.89062 0.92188 0 0.09375 0.15625 0.23438 0.25 0.21875 0.5-0.48438 0.64062-0.57812 1.25-0.015625l2.9219 2.7344c0.60938 0.5625 0.53125 0.71875 0.0625 1.25 0 0.09375 0.15625 0.23438 0.25 0.23438 0.26562-0.28125 0.60938-0.6875 0.875-0.95312 0.25-0.28125 0.54688-0.5625 1.25-1.3125 0.95312-1.0312 1.7656-2.8281-0.03125-4.5-1.3438-1.2656-3.5156-1.1875-4.8125 0.20312-0.5 0.51562-0.85938 0.9375-1.125 1.2188zm4.3906 3.5-3.5-3.2656c-0.25-0.23438-0.125-0.57812 0.20312-0.9375 1.4844-1.5781 3.25-0.89062 4.375 0.14062 1.4688 1.3906 1 2.6094 0.03125 3.625-0.65625 0.71875-0.875 0.65625-1.1094 0.4375z"/>
  </g>
  <g id="v">
   <path d="m0.90625-5.4688c0.078125-0.09375 0.015625-0.375-0.046875-0.4375-0.0625-0.046875-0.15625-0.078125-0.23438 0l-2.6562 2.8594c-0.078125 0.078125-0.046875 0.29688 0.078125 0.40625 0.046875 0.046875 0.15625 0.0625 0.21875 0zm1.2031 1.125c0.078125-0.09375 0.03125-0.35938-0.046875-0.42188-0.0625-0.0625-0.15625-0.09375-0.23438-0.015625l-2.6562 2.8594c-0.078125 0.078125-0.03125 0.29688 0.078125 0.40625 0.0625 0.046875 0.15625 0.0625 0.21875 0z"/>
  </g>
  <g id="u">
   <path d="m1.0781-2.9219-2.5312-2.3594c-0.4375-0.42188-0.875-0.82812-0.95312-0.95312-0.046875-0.03125-0.0625 0-0.09375 0.015625-0.10938 0.64062-0.29688 1.1875-0.59375 2.1094 0.09375 0.078125 0.20312 0.09375 0.29688 0.078125 0.1875-0.46875 0.28125-0.65625 0.40625-0.79688 0.125-0.125 0.3125 0 0.5625 0.23438l2.375 2.2188c0.60938 0.5625 0.45312 0.79688 0 1.3281 0 0.09375 0.15625 0.23438 0.25 0.23438 0.32812-0.35938 0.5625-0.64062 0.92188-1.0312 0.32812-0.34375 0.5-0.5 0.84375-0.875 0-0.09375-0.15625-0.23438-0.25-0.23438-0.48438 0.48438-0.625 0.59375-1.2344 0.03125z"/>
  </g>
  <clipPath id="ae">
   <path d="m113 56h49.809v44h-49.809z"/>
  </clipPath>
 </defs>
 <path transform="matrix(1 0 0 -1 81.403 21.452)" d="m-23.856-21.255h47.711v42.508h-47.711z" fill="none" stroke="#000" stroke-miterlimit="10" stroke-width=".3985"/>
 <g fill="#000000">
  <use x="60.868" y="11.888" xlink:href="#c"/>
  <use x="66.127998" y="13.98" xlink:href="#n"/>
  <use x="71.994003" y="11.888" xlink:href="#b"/>
  <use x="82.739998" y="11.888" xlink:href="#f"/>
  <use x="88.498383" y="11.888" xlink:href="#e"/>
  <use x="92.204468" y="11.888" xlink:href="#d"/>
  <use x="97.494614" y="11.888" xlink:href="#a"/>
  <use x="60.868" y="23.843" xlink:href="#c"/>
  <use x="66.127998" y="25.934999" xlink:href="#m"/>
  <use x="71.994003" y="23.843" xlink:href="#b"/>
  <use x="82.739998" y="23.843" xlink:href="#f"/>
  <use x="88.498383" y="23.843" xlink:href="#e"/>
  <use x="92.204468" y="23.843" xlink:href="#d"/>
  <use x="97.494614" y="23.843" xlink:href="#a"/>
  <use x="60.868" y="35.798" xlink:href="#c"/>
  <use x="66.127998" y="37.889999" xlink:href="#l"/>
  <use x="71.994003" y="35.798" xlink:href="#b"/>
  <use x="82.739998" y="35.798" xlink:href="#f"/>
  <use x="88.498383" y="35.798" xlink:href="#e"/>
  <use x="92.204468" y="35.798" xlink:href="#d"/>
  <use x="97.494614" y="35.798" xlink:href="#a"/>
  <use x="60.013" y="52.98" xlink:href="#k"/>
  <use x="66.97686" y="52.98" xlink:href="#g"/>
  <use x="73.412697" y="52.98" xlink:href="#g"/>
  <use x="82.339188" y="52.98" xlink:href="#h"/>
  <use x="90.309265" y="52.98" xlink:href="#j"/>
  <use x="94.941879" y="52.98" xlink:href="#i"/>
  <use x="98.159798" y="52.98" xlink:href="#t"/>
 </g>
 <path d="m113.66 99.398h48.867v-42.508h-48.867z" clip-path="url(#ae)" fill="none" stroke="#000" stroke-miterlimit="10" stroke-width=".3985"/>
 <g fill="#000000">
  <use x="116.983" y="68.581001" xlink:href="#c"/>
  <use x="122.243" y="70.672997" xlink:href="#n"/>
  <use x="128.10899" y="68.581001" xlink:href="#b"/>
  <use x="138.855" y="68.581001" xlink:href="#s"/>
  <use x="143.68686" y="68.581001" xlink:href="#r"/>
  <use x="148.23978" y="68.581001" xlink:href="#q"/>
  <use x="150.8699" y="68.581001" xlink:href="#p"/>
  <use x="154.75531" y="68.581001" xlink:href="#a"/>
  <use x="116.983" y="80.536003" xlink:href="#c"/>
  <use x="122.243" y="82.627998" xlink:href="#m"/>
  <use x="128.10899" y="80.536003" xlink:href="#b"/>
  <use x="138.855" y="80.536003" xlink:href="#f"/>
  <use x="144.61339" y="80.536003" xlink:href="#e"/>
  <use x="148.31947" y="80.536003" xlink:href="#d"/>
  <use x="153.6096" y="80.536003" xlink:href="#a"/>
  <use x="116.983" y="92.490997" xlink:href="#c"/>
  <use x="122.243" y="94.583" xlink:href="#l"/>
  <use x="128.10899" y="92.490997" xlink:href="#b"/>
  <use x="138.855" y="92.490997" xlink:href="#f"/>
  <use x="144.61339" y="92.490997" xlink:href="#e"/>
  <use x="148.31947" y="92.490997" xlink:href="#d"/>
  <use x="153.6096" y="92.490997" xlink:href="#a"/>
  <use x="116.707" y="109.674" xlink:href="#k"/>
  <use x="123.67086" y="109.674" xlink:href="#g"/>
  <use x="130.10669" y="109.674" xlink:href="#g"/>
  <use x="139.03319" y="109.674" xlink:href="#h"/>
  <use x="147.00327" y="109.674" xlink:href="#j"/>
  <use x="151.63588" y="109.674" xlink:href="#i"/>
  <use x="154.85379" y="109.674" xlink:href="#o"/>
 </g>
 <path transform="matrix(1 0 0 -1 81.403 21.452)" d="m-81.126-77.946h48.867v42.508h-48.867z" fill="none" stroke="#000" stroke-miterlimit="10" stroke-width=".3985"/>
 <g fill="#000000">
  <use x="3.596" y="68.581001" xlink:href="#c"/>
  <use x="8.8559999" y="70.672997" xlink:href="#n"/>
  <use x="14.722" y="68.581001" xlink:href="#b"/>
  <use x="25.468" y="68.581001" xlink:href="#f"/>
  <use x="31.226383" y="68.581001" xlink:href="#e"/>
  <use x="34.932468" y="68.581001" xlink:href="#d"/>
  <use x="40.22261" y="68.581001" xlink:href="#a"/>
  <use x="3.596" y="80.536003" xlink:href="#c"/>
  <use x="8.8559999" y="82.627998" xlink:href="#m"/>
  <use x="14.722" y="80.536003" xlink:href="#b"/>
  <use x="25.468" y="80.536003" xlink:href="#f"/>
  <use x="31.226383" y="80.536003" xlink:href="#e"/>
  <use x="34.932468" y="80.536003" xlink:href="#d"/>
  <use x="40.22261" y="80.536003" xlink:href="#a"/>
  <use x="3.596" y="92.490997" xlink:href="#c"/>
  <use x="8.8559999" y="94.583" xlink:href="#l"/>
  <use x="14.722" y="92.490997" xlink:href="#b"/>
  <use x="25.468" y="92.490997" xlink:href="#s"/>
  <use x="30.299862" y="92.490997" xlink:href="#r"/>
  <use x="34.852768" y="92.490997" xlink:href="#q"/>
  <use x="37.482895" y="92.490997" xlink:href="#p"/>
  <use x="41.368309" y="92.490997" xlink:href="#a"/>
  <use x="3.319" y="109.674" xlink:href="#k"/>
  <use x="10.282857" y="109.674" xlink:href="#g"/>
  <use x="16.718697" y="109.674" xlink:href="#g"/>
  <use x="25.645187" y="109.674" xlink:href="#h"/>
  <use x="33.615269" y="109.674" xlink:href="#j"/>
  <use x="38.247875" y="109.674" xlink:href="#i"/>
  <use x="41.465794" y="109.674" xlink:href="#o"/>
 </g>
 <path transform="matrix(1 0 0 -1 81.403 21.452)" d="m24.054-6.4464c14.762-4.5 23.41-13.758 26.891-28.793" fill="none" stroke="#000" stroke-miterlimit="10" stroke-width=".3985"/>
 <g fill="#000000">
  <use x="115.70393" y="25.202538" xlink:href="#ab"/>
  <use x="120.66762" y="30.517935" xlink:href="#aa"/>
  <use x="127.13401" y="37.442513" xlink:href="#z"/>
  <use x="132.57367" y="43.267605" xlink:href="#y"/>
 </g>
 <path transform="matrix(1 0 0 -1 81.403 21.452)" d="m-24.055-6.4464c-14.762-4.5-23.41-13.758-26.891-28.793" fill="none" stroke="#000" stroke-miterlimit="10" stroke-width=".3985"/>
 <g fill="#000000">
  <use x="27.070356" y="46.654797" xlink:href="#x"/>
  <use x="32.034046" y="41.339401" xlink:href="#w"/>
  <use x="38.500439" y="34.414822" xlink:href="#v"/>
  <use x="43.940098" y="28.589729" xlink:href="#u"/>
 </g>
 <path transform="matrix(1 0 0 -1 81.403 21.452)" d="m32.062-56.693h-64.121" fill="none" stroke="#000" stroke-miterlimit="10" stroke-width=".3985"/>
 <g fill="#000000">
  <use x="66.727997" y="74.606003" xlink:href="#ad"/>
  <use x="74.000694" y="74.606003" xlink:href="#ac"/>
  <use x="83.475128" y="74.606003" xlink:href="#h"/>
  <use x="91.445213" y="74.606003" xlink:href="#t"/>
 </g>
</svg>
