<?xml version="1.0" encoding="utf-8" standalone="no"?>
<!DOCTYPE svg PUBLIC "-//W3C//DTD SVG 1.1//EN"
  "http://www.w3.org/Graphics/SVG/1.1/DTD/svg11.dtd">
<!-- Created with matplotlib (https://matplotlib.org/) -->
<svg height="302.4pt" version="1.1" viewBox="0 0 446.4 302.4" width="446.4pt" xmlns="http://www.w3.org/2000/svg" xmlns:xlink="http://www.w3.org/1999/xlink">
 <metadata>
  <rdf:RDF xmlns:cc="http://creativecommons.org/ns#" xmlns:dc="http://purl.org/dc/elements/1.1/" xmlns:rdf="http://www.w3.org/1999/02/22-rdf-syntax-ns#">
   <cc:Work>
    <dc:type rdf:resource="http://purl.org/dc/dcmitype/StillImage"/>
    <dc:date>2021-05-02T16:26:38.383602</dc:date>
    <dc:format>image/svg+xml</dc:format>
    <dc:creator>
     <cc:Agent>
      <dc:title>Matplotlib v3.3.4, https://matplotlib.org/</dc:title>
     </cc:Agent>
    </dc:creator>
   </cc:Work>
  </rdf:RDF>
 </metadata>
 <defs>
  <style type="text/css">*{stroke-linecap:butt;stroke-linejoin:round;}</style>
 </defs>
 <g id="figure_1">
  <g id="patch_1">
   <path d="M 0 302.4 
L 446.4 302.4 
L 446.4 0 
L 0 0 
z
" style="fill:#ffffff;"/>
  </g>
  <g id="axes_1">
   <g id="LineCollection_1">
    <path clip-path="url(#p3f89326fc4)" d="M 278.378165 61.758063 
L 360.216537 82.917648 
" style="fill:none;stroke:#000000;"/>
    <path clip-path="url(#p3f89326fc4)" d="M 278.378165 61.758063 
L 217.154762 133.774721 
" style="fill:none;stroke:#000000;"/>
    <path clip-path="url(#p3f89326fc4)" d="M 278.378165 61.758063 
L 162.115381 22.06732 
" style="fill:none;stroke:#000000;"/>
    <path clip-path="url(#p3f89326fc4)" d="M 278.378165 61.758063 
L 196.055744 96.116877 
" style="fill:none;stroke:#000000;"/>
    <path clip-path="url(#p3f89326fc4)" d="M 278.378165 61.758063 
L 345.828085 138.721395 
" style="fill:none;stroke:#000000;"/>
    <path clip-path="url(#p3f89326fc4)" d="M 360.216537 82.917648 
L 321.531026 166.933187 
" style="fill:none;stroke:#000000;"/>
    <path clip-path="url(#p3f89326fc4)" d="M 360.216537 82.917648 
L 255.69246 20.290909 
" style="fill:none;stroke:#000000;"/>
    <path clip-path="url(#p3f89326fc4)" d="M 360.216537 82.917648 
L 276.311035 122.082783 
" style="fill:none;stroke:#000000;"/>
    <path clip-path="url(#p3f89326fc4)" d="M 360.216537 82.917648 
L 419.563636 168.276437 
" style="fill:none;stroke:#000000;"/>
    <path clip-path="url(#p3f89326fc4)" d="M 196.055744 96.116877 
L 276.311035 122.082783 
" style="fill:none;stroke:#000000;"/>
    <path clip-path="url(#p3f89326fc4)" d="M 196.055744 96.116877 
L 135.365248 166.180971 
" style="fill:none;stroke:#000000;"/>
    <path clip-path="url(#p3f89326fc4)" d="M 196.055744 96.116877 
L 78.472615 61.442709 
" style="fill:none;stroke:#000000;"/>
    <path clip-path="url(#p3f89326fc4)" d="M 196.055744 96.116877 
L 261.457715 180.975546 
" style="fill:none;stroke:#000000;"/>
    <path clip-path="url(#p3f89326fc4)" d="M 276.311035 122.082783 
L 211.215032 201.875608 
" style="fill:none;stroke:#000000;"/>
    <path clip-path="url(#p3f89326fc4)" d="M 276.311035 122.082783 
L 157.569053 80.513358 
" style="fill:none;stroke:#000000;"/>
    <path clip-path="url(#p3f89326fc4)" d="M 276.311035 122.082783 
L 341.971876 212.714594 
" style="fill:none;stroke:#000000;"/>
    <path clip-path="url(#p3f89326fc4)" d="M 162.115381 22.06732 
L 255.69246 20.290909 
" style="fill:none;stroke:#000000;"/>
    <path clip-path="url(#p3f89326fc4)" d="M 162.115381 22.06732 
L 95.936778 105.129921 
" style="fill:none;stroke:#000000;"/>
    <path clip-path="url(#p3f89326fc4)" d="M 162.115381 22.06732 
L 78.472615 61.442709 
" style="fill:none;stroke:#000000;"/>
    <path clip-path="url(#p3f89326fc4)" d="M 255.69246 20.290909 
L 157.569053 80.513358 
" style="fill:none;stroke:#000000;"/>
    <path clip-path="url(#p3f89326fc4)" d="M 78.472615 61.442709 
L 157.569053 80.513358 
" style="fill:none;stroke:#000000;"/>
    <path clip-path="url(#p3f89326fc4)" d="M 78.472615 61.442709 
L 26.836364 145.845137 
" style="fill:none;stroke:#000000;"/>
    <path clip-path="url(#p3f89326fc4)" d="M 157.569053 80.513358 
L 89.284091 181.230069 
" style="fill:none;stroke:#000000;"/>
    <path clip-path="url(#p3f89326fc4)" d="M 217.154762 133.774721 
L 321.531026 166.933187 
" style="fill:none;stroke:#000000;"/>
    <path clip-path="url(#p3f89326fc4)" d="M 217.154762 133.774721 
L 95.936778 105.129921 
" style="fill:none;stroke:#000000;"/>
    <path clip-path="url(#p3f89326fc4)" d="M 217.154762 133.774721 
L 135.365248 166.180971 
" style="fill:none;stroke:#000000;"/>
    <path clip-path="url(#p3f89326fc4)" d="M 217.154762 133.774721 
L 254.13177 221.179198 
" style="fill:none;stroke:#000000;"/>
    <path clip-path="url(#p3f89326fc4)" d="M 135.365248 166.180971 
L 211.215032 201.875608 
" style="fill:none;stroke:#000000;"/>
    <path clip-path="url(#p3f89326fc4)" d="M 135.365248 166.180971 
L 26.836364 145.845137 
" style="fill:none;stroke:#000000;"/>
    <path clip-path="url(#p3f89326fc4)" d="M 135.365248 166.180971 
L 173.547819 251.762904 
" style="fill:none;stroke:#000000;"/>
    <path clip-path="url(#p3f89326fc4)" d="M 95.936778 105.129921 
L 26.836364 145.845137 
" style="fill:none;stroke:#000000;"/>
    <path clip-path="url(#p3f89326fc4)" d="M 95.936778 105.129921 
L 114.467391 204.949305 
" style="fill:none;stroke:#000000;"/>
    <path clip-path="url(#p3f89326fc4)" d="M 26.836364 145.845137 
L 89.284091 181.230069 
" style="fill:none;stroke:#000000;"/>
    <path clip-path="url(#p3f89326fc4)" d="M 26.836364 145.845137 
L 47.482186 239.886933 
" style="fill:none;stroke:#000000;"/>
    <path clip-path="url(#p3f89326fc4)" d="M 321.531026 166.933187 
L 211.215032 201.875608 
" style="fill:none;stroke:#000000;"/>
    <path clip-path="url(#p3f89326fc4)" d="M 321.531026 166.933187 
L 350.805097 249.810894 
" style="fill:none;stroke:#000000;"/>
    <path clip-path="url(#p3f89326fc4)" d="M 211.215032 201.875608 
L 89.284091 181.230069 
" style="fill:none;stroke:#000000;"/>
    <path clip-path="url(#p3f89326fc4)" d="M 211.215032 201.875608 
L 252.338301 280.947708 
" style="fill:none;stroke:#000000;"/>
    <path clip-path="url(#p3f89326fc4)" d="M 89.284091 181.230069 
L 120.108089 282.109091 
" style="fill:none;stroke:#000000;"/>
    <path clip-path="url(#p3f89326fc4)" d="M 345.828085 138.721395 
L 419.563636 168.276437 
" style="fill:none;stroke:#000000;"/>
    <path clip-path="url(#p3f89326fc4)" d="M 345.828085 138.721395 
L 254.13177 221.179198 
" style="fill:none;stroke:#000000;"/>
    <path clip-path="url(#p3f89326fc4)" d="M 345.828085 138.721395 
L 261.457715 180.975546 
" style="fill:none;stroke:#000000;"/>
    <path clip-path="url(#p3f89326fc4)" d="M 419.563636 168.276437 
L 350.805097 249.810894 
" style="fill:none;stroke:#000000;"/>
    <path clip-path="url(#p3f89326fc4)" d="M 419.563636 168.276437 
L 341.971876 212.714594 
" style="fill:none;stroke:#000000;"/>
    <path clip-path="url(#p3f89326fc4)" d="M 261.457715 180.975546 
L 341.971876 212.714594 
" style="fill:none;stroke:#000000;"/>
    <path clip-path="url(#p3f89326fc4)" d="M 261.457715 180.975546 
L 173.547819 251.762904 
" style="fill:none;stroke:#000000;"/>
    <path clip-path="url(#p3f89326fc4)" d="M 341.971876 212.714594 
L 252.338301 280.947708 
" style="fill:none;stroke:#000000;"/>
    <path clip-path="url(#p3f89326fc4)" d="M 254.13177 221.179198 
L 350.805097 249.810894 
" style="fill:none;stroke:#000000;"/>
    <path clip-path="url(#p3f89326fc4)" d="M 254.13177 221.179198 
L 114.467391 204.949305 
" style="fill:none;stroke:#000000;"/>
    <path clip-path="url(#p3f89326fc4)" d="M 254.13177 221.179198 
L 173.547819 251.762904 
" style="fill:none;stroke:#000000;"/>
    <path clip-path="url(#p3f89326fc4)" d="M 173.547819 251.762904 
L 252.338301 280.947708 
" style="fill:none;stroke:#000000;"/>
    <path clip-path="url(#p3f89326fc4)" d="M 173.547819 251.762904 
L 47.482186 239.886933 
" style="fill:none;stroke:#000000;"/>
    <path clip-path="url(#p3f89326fc4)" d="M 114.467391 204.949305 
L 47.482186 239.886933 
" style="fill:none;stroke:#000000;"/>
    <path clip-path="url(#p3f89326fc4)" d="M 47.482186 239.886933 
L 120.108089 282.109091 
" style="fill:none;stroke:#000000;"/>
    <path clip-path="url(#p3f89326fc4)" d="M 350.805097 249.810894 
L 252.338301 280.947708 
" style="fill:none;stroke:#000000;"/>
    <path clip-path="url(#p3f89326fc4)" d="M 252.338301 280.947708 
L 120.108089 282.109091 
" style="fill:none;stroke:#000000;"/>
   </g>
   <g id="PathCollection_1">
    <defs>
     <path d="M 0 8.660254 
C 2.296726 8.660254 4.499694 7.747755 6.123724 6.123724 
C 7.747755 4.499694 8.660254 2.296726 8.660254 0 
C 8.660254 -2.296726 7.747755 -4.499694 6.123724 -6.123724 
C 4.499694 -7.747755 2.296726 -8.660254 0 -8.660254 
C -2.296726 -8.660254 -4.499694 -7.747755 -6.123724 -6.123724 
C -7.747755 -4.499694 -8.660254 -2.296726 -8.660254 0 
C -8.660254 2.296726 -7.747755 4.499694 -6.123724 6.123724 
C -4.499694 7.747755 -2.296726 8.660254 0 8.660254 
z
" id="mc6694aafdf" style="stroke:#aaaaaa;"/>
    </defs>
    <g clip-path="url(#p3f89326fc4)">
     <use style="fill:#aaaaaa;stroke:#aaaaaa;" x="278.378165" xlink:href="#mc6694aafdf" y="61.758063"/>
     <use style="fill:#aaaaaa;stroke:#aaaaaa;" x="360.216537" xlink:href="#mc6694aafdf" y="82.917648"/>
     <use style="fill:#aaaaaa;stroke:#aaaaaa;" x="196.055744" xlink:href="#mc6694aafdf" y="96.116877"/>
     <use style="fill:#aaaaaa;stroke:#aaaaaa;" x="276.311035" xlink:href="#mc6694aafdf" y="122.082783"/>
     <use style="fill:#aaaaaa;stroke:#aaaaaa;" x="162.115381" xlink:href="#mc6694aafdf" y="22.06732"/>
     <use style="fill:#aaaaaa;stroke:#aaaaaa;" x="255.69246" xlink:href="#mc6694aafdf" y="20.290909"/>
     <use style="fill:#aaaaaa;stroke:#aaaaaa;" x="78.472615" xlink:href="#mc6694aafdf" y="61.442709"/>
     <use style="fill:#aaaaaa;stroke:#aaaaaa;" x="157.569053" xlink:href="#mc6694aafdf" y="80.513358"/>
     <use style="fill:#aaaaaa;stroke:#aaaaaa;" x="217.154762" xlink:href="#mc6694aafdf" y="133.774721"/>
     <use style="fill:#aaaaaa;stroke:#aaaaaa;" x="135.365248" xlink:href="#mc6694aafdf" y="166.180971"/>
     <use style="fill:#aaaaaa;stroke:#aaaaaa;" x="95.936778" xlink:href="#mc6694aafdf" y="105.129921"/>
     <use style="fill:#aaaaaa;stroke:#aaaaaa;" x="26.836364" xlink:href="#mc6694aafdf" y="145.845137"/>
     <use style="fill:#aaaaaa;stroke:#aaaaaa;" x="321.531026" xlink:href="#mc6694aafdf" y="166.933187"/>
     <use style="fill:#aaaaaa;stroke:#aaaaaa;" x="211.215032" xlink:href="#mc6694aafdf" y="201.875608"/>
     <use style="fill:#aaaaaa;stroke:#aaaaaa;" x="89.284091" xlink:href="#mc6694aafdf" y="181.230069"/>
     <use style="fill:#aaaaaa;stroke:#aaaaaa;" x="345.828085" xlink:href="#mc6694aafdf" y="138.721395"/>
     <use style="fill:#aaaaaa;stroke:#aaaaaa;" x="419.563636" xlink:href="#mc6694aafdf" y="168.276437"/>
     <use style="fill:#aaaaaa;stroke:#aaaaaa;" x="261.457715" xlink:href="#mc6694aafdf" y="180.975546"/>
     <use style="fill:#aaaaaa;stroke:#aaaaaa;" x="341.971876" xlink:href="#mc6694aafdf" y="212.714594"/>
     <use style="fill:#aaaaaa;stroke:#aaaaaa;" x="254.13177" xlink:href="#mc6694aafdf" y="221.179198"/>
     <use style="fill:#aaaaaa;stroke:#aaaaaa;" x="173.547819" xlink:href="#mc6694aafdf" y="251.762904"/>
     <use style="fill:#aaaaaa;stroke:#aaaaaa;" x="114.467391" xlink:href="#mc6694aafdf" y="204.949305"/>
     <use style="fill:#aaaaaa;stroke:#aaaaaa;" x="47.482186" xlink:href="#mc6694aafdf" y="239.886933"/>
     <use style="fill:#aaaaaa;stroke:#aaaaaa;" x="350.805097" xlink:href="#mc6694aafdf" y="249.810894"/>
     <use style="fill:#aaaaaa;stroke:#aaaaaa;" x="252.338301" xlink:href="#mc6694aafdf" y="280.947708"/>
     <use style="fill:#aaaaaa;stroke:#aaaaaa;" x="120.108089" xlink:href="#mc6694aafdf" y="282.109091"/>
    </g>
   </g>
   <g id="text_1">
    <g clip-path="url(#p3f89326fc4)">
     <!-- 00000 -->
     <g transform="translate(259.290665 65.069313)scale(0.12 -0.12)">
      <defs>
       <path d="M 31.78125 66.40625 
Q 24.171875 66.40625 20.328125 58.90625 
Q 16.5 51.421875 16.5 36.375 
Q 16.5 21.390625 20.328125 13.890625 
Q 24.171875 6.390625 31.78125 6.390625 
Q 39.453125 6.390625 43.28125 13.890625 
Q 47.125 21.390625 47.125 36.375 
Q 47.125 51.421875 43.28125 58.90625 
Q 39.453125 66.40625 31.78125 66.40625 
z
M 31.78125 74.21875 
Q 44.046875 74.21875 50.515625 64.515625 
Q 56.984375 54.828125 56.984375 36.375 
Q 56.984375 17.96875 50.515625 8.265625 
Q 44.046875 -1.421875 31.78125 -1.421875 
Q 19.53125 -1.421875 13.0625 8.265625 
Q 6.59375 17.96875 6.59375 36.375 
Q 6.59375 54.828125 13.0625 64.515625 
Q 19.53125 74.21875 31.78125 74.21875 
z
" id="DejaVuSans-48"/>
      </defs>
      <use xlink:href="#DejaVuSans-48"/>
      <use x="63.623047" xlink:href="#DejaVuSans-48"/>
      <use x="127.246094" xlink:href="#DejaVuSans-48"/>
      <use x="190.869141" xlink:href="#DejaVuSans-48"/>
      <use x="254.492188" xlink:href="#DejaVuSans-48"/>
     </g>
    </g>
   </g>
   <g id="text_2">
    <g clip-path="url(#p3f89326fc4)">
     <!-- 10000 -->
     <g transform="translate(341.129037 86.228898)scale(0.12 -0.12)">
      <defs>
       <path d="M 12.40625 8.296875 
L 28.515625 8.296875 
L 28.515625 63.921875 
L 10.984375 60.40625 
L 10.984375 69.390625 
L 28.421875 72.90625 
L 38.28125 72.90625 
L 38.28125 8.296875 
L 54.390625 8.296875 
L 54.390625 0 
L 12.40625 0 
z
" id="DejaVuSans-49"/>
      </defs>
      <use xlink:href="#DejaVuSans-49"/>
      <use x="63.623047" xlink:href="#DejaVuSans-48"/>
      <use x="127.246094" xlink:href="#DejaVuSans-48"/>
      <use x="190.869141" xlink:href="#DejaVuSans-48"/>
      <use x="254.492188" xlink:href="#DejaVuSans-48"/>
     </g>
    </g>
   </g>
   <g id="text_3">
    <g clip-path="url(#p3f89326fc4)">
     <!-- 00010 -->
     <g transform="translate(176.968244 99.428127)scale(0.12 -0.12)">
      <use xlink:href="#DejaVuSans-48"/>
      <use x="63.623047" xlink:href="#DejaVuSans-48"/>
      <use x="127.246094" xlink:href="#DejaVuSans-48"/>
      <use x="190.869141" xlink:href="#DejaVuSans-49"/>
      <use x="254.492188" xlink:href="#DejaVuSans-48"/>
     </g>
    </g>
   </g>
   <g id="text_4">
    <g clip-path="url(#p3f89326fc4)">
     <!-- 10010 -->
     <g transform="translate(257.223535 125.394033)scale(0.12 -0.12)">
      <use xlink:href="#DejaVuSans-49"/>
      <use x="63.623047" xlink:href="#DejaVuSans-48"/>
      <use x="127.246094" xlink:href="#DejaVuSans-48"/>
      <use x="190.869141" xlink:href="#DejaVuSans-49"/>
      <use x="254.492188" xlink:href="#DejaVuSans-48"/>
     </g>
    </g>
   </g>
   <g id="text_5">
    <g clip-path="url(#p3f89326fc4)">
     <!-- 00100 -->
     <g transform="translate(143.027881 25.37857)scale(0.12 -0.12)">
      <use xlink:href="#DejaVuSans-48"/>
      <use x="63.623047" xlink:href="#DejaVuSans-48"/>
      <use x="127.246094" xlink:href="#DejaVuSans-49"/>
      <use x="190.869141" xlink:href="#DejaVuSans-48"/>
      <use x="254.492188" xlink:href="#DejaVuSans-48"/>
     </g>
    </g>
   </g>
   <g id="text_6">
    <g clip-path="url(#p3f89326fc4)">
     <!-- 10100 -->
     <g transform="translate(236.60496 23.602159)scale(0.12 -0.12)">
      <use xlink:href="#DejaVuSans-49"/>
      <use x="63.623047" xlink:href="#DejaVuSans-48"/>
      <use x="127.246094" xlink:href="#DejaVuSans-49"/>
      <use x="190.869141" xlink:href="#DejaVuSans-48"/>
      <use x="254.492188" xlink:href="#DejaVuSans-48"/>
     </g>
    </g>
   </g>
   <g id="text_7">
    <g clip-path="url(#p3f89326fc4)">
     <!-- 00110 -->
     <g transform="translate(59.385115 64.753959)scale(0.12 -0.12)">
      <use xlink:href="#DejaVuSans-48"/>
      <use x="63.623047" xlink:href="#DejaVuSans-48"/>
      <use x="127.246094" xlink:href="#DejaVuSans-49"/>
      <use x="190.869141" xlink:href="#DejaVuSans-49"/>
      <use x="254.492188" xlink:href="#DejaVuSans-48"/>
     </g>
    </g>
   </g>
   <g id="text_8">
    <g clip-path="url(#p3f89326fc4)">
     <!-- 10110 -->
     <g transform="translate(138.481553 83.824608)scale(0.12 -0.12)">
      <use xlink:href="#DejaVuSans-49"/>
      <use x="63.623047" xlink:href="#DejaVuSans-48"/>
      <use x="127.246094" xlink:href="#DejaVuSans-49"/>
      <use x="190.869141" xlink:href="#DejaVuSans-49"/>
      <use x="254.492188" xlink:href="#DejaVuSans-48"/>
     </g>
    </g>
   </g>
   <g id="text_9">
    <g clip-path="url(#p3f89326fc4)">
     <!-- 01000 -->
     <g transform="translate(198.067262 137.085971)scale(0.12 -0.12)">
      <use xlink:href="#DejaVuSans-48"/>
      <use x="63.623047" xlink:href="#DejaVuSans-49"/>
      <use x="127.246094" xlink:href="#DejaVuSans-48"/>
      <use x="190.869141" xlink:href="#DejaVuSans-48"/>
      <use x="254.492188" xlink:href="#DejaVuSans-48"/>
     </g>
    </g>
   </g>
   <g id="text_10">
    <g clip-path="url(#p3f89326fc4)">
     <!-- 01010 -->
     <g transform="translate(116.277748 169.492221)scale(0.12 -0.12)">
      <use xlink:href="#DejaVuSans-48"/>
      <use x="63.623047" xlink:href="#DejaVuSans-49"/>
      <use x="127.246094" xlink:href="#DejaVuSans-48"/>
      <use x="190.869141" xlink:href="#DejaVuSans-49"/>
      <use x="254.492188" xlink:href="#DejaVuSans-48"/>
     </g>
    </g>
   </g>
   <g id="text_11">
    <g clip-path="url(#p3f89326fc4)">
     <!-- 01100 -->
     <g transform="translate(76.849278 108.441171)scale(0.12 -0.12)">
      <use xlink:href="#DejaVuSans-48"/>
      <use x="63.623047" xlink:href="#DejaVuSans-49"/>
      <use x="127.246094" xlink:href="#DejaVuSans-49"/>
      <use x="190.869141" xlink:href="#DejaVuSans-48"/>
      <use x="254.492188" xlink:href="#DejaVuSans-48"/>
     </g>
    </g>
   </g>
   <g id="text_12">
    <g clip-path="url(#p3f89326fc4)">
     <!-- 01110 -->
     <g transform="translate(7.748864 149.156387)scale(0.12 -0.12)">
      <use xlink:href="#DejaVuSans-48"/>
      <use x="63.623047" xlink:href="#DejaVuSans-49"/>
      <use x="127.246094" xlink:href="#DejaVuSans-49"/>
      <use x="190.869141" xlink:href="#DejaVuSans-49"/>
      <use x="254.492188" xlink:href="#DejaVuSans-48"/>
     </g>
    </g>
   </g>
   <g id="text_13">
    <g clip-path="url(#p3f89326fc4)">
     <!-- 11000 -->
     <g transform="translate(302.443526 170.244437)scale(0.12 -0.12)">
      <use xlink:href="#DejaVuSans-49"/>
      <use x="63.623047" xlink:href="#DejaVuSans-49"/>
      <use x="127.246094" xlink:href="#DejaVuSans-48"/>
      <use x="190.869141" xlink:href="#DejaVuSans-48"/>
      <use x="254.492188" xlink:href="#DejaVuSans-48"/>
     </g>
    </g>
   </g>
   <g id="text_14">
    <g clip-path="url(#p3f89326fc4)">
     <!-- 11010 -->
     <g transform="translate(192.127532 205.186858)scale(0.12 -0.12)">
      <use xlink:href="#DejaVuSans-49"/>
      <use x="63.623047" xlink:href="#DejaVuSans-49"/>
      <use x="127.246094" xlink:href="#DejaVuSans-48"/>
      <use x="190.869141" xlink:href="#DejaVuSans-49"/>
      <use x="254.492188" xlink:href="#DejaVuSans-48"/>
     </g>
    </g>
   </g>
   <g id="text_15">
    <g clip-path="url(#p3f89326fc4)">
     <!-- 11110 -->
     <g transform="translate(70.196591 184.541319)scale(0.12 -0.12)">
      <use xlink:href="#DejaVuSans-49"/>
      <use x="63.623047" xlink:href="#DejaVuSans-49"/>
      <use x="127.246094" xlink:href="#DejaVuSans-49"/>
      <use x="190.869141" xlink:href="#DejaVuSans-49"/>
      <use x="254.492188" xlink:href="#DejaVuSans-48"/>
     </g>
    </g>
   </g>
   <g id="text_16">
    <g clip-path="url(#p3f89326fc4)">
     <!-- 00001 -->
     <g transform="translate(326.740585 142.032645)scale(0.12 -0.12)">
      <use xlink:href="#DejaVuSans-48"/>
      <use x="63.623047" xlink:href="#DejaVuSans-48"/>
      <use x="127.246094" xlink:href="#DejaVuSans-48"/>
      <use x="190.869141" xlink:href="#DejaVuSans-48"/>
      <use x="254.492188" xlink:href="#DejaVuSans-49"/>
     </g>
    </g>
   </g>
   <g id="text_17">
    <g clip-path="url(#p3f89326fc4)">
     <!-- 10001 -->
     <g transform="translate(400.476136 171.587687)scale(0.12 -0.12)">
      <use xlink:href="#DejaVuSans-49"/>
      <use x="63.623047" xlink:href="#DejaVuSans-48"/>
      <use x="127.246094" xlink:href="#DejaVuSans-48"/>
      <use x="190.869141" xlink:href="#DejaVuSans-48"/>
      <use x="254.492188" xlink:href="#DejaVuSans-49"/>
     </g>
    </g>
   </g>
   <g id="text_18">
    <g clip-path="url(#p3f89326fc4)">
     <!-- 00011 -->
     <g transform="translate(242.370215 184.286796)scale(0.12 -0.12)">
      <use xlink:href="#DejaVuSans-48"/>
      <use x="63.623047" xlink:href="#DejaVuSans-48"/>
      <use x="127.246094" xlink:href="#DejaVuSans-48"/>
      <use x="190.869141" xlink:href="#DejaVuSans-49"/>
      <use x="254.492188" xlink:href="#DejaVuSans-49"/>
     </g>
    </g>
   </g>
   <g id="text_19">
    <g clip-path="url(#p3f89326fc4)">
     <!-- 10011 -->
     <g transform="translate(322.884376 216.025844)scale(0.12 -0.12)">
      <use xlink:href="#DejaVuSans-49"/>
      <use x="63.623047" xlink:href="#DejaVuSans-48"/>
      <use x="127.246094" xlink:href="#DejaVuSans-48"/>
      <use x="190.869141" xlink:href="#DejaVuSans-49"/>
      <use x="254.492188" xlink:href="#DejaVuSans-49"/>
     </g>
    </g>
   </g>
   <g id="text_20">
    <g clip-path="url(#p3f89326fc4)">
     <!-- 01001 -->
     <g transform="translate(235.04427 224.490448)scale(0.12 -0.12)">
      <use xlink:href="#DejaVuSans-48"/>
      <use x="63.623047" xlink:href="#DejaVuSans-49"/>
      <use x="127.246094" xlink:href="#DejaVuSans-48"/>
      <use x="190.869141" xlink:href="#DejaVuSans-48"/>
      <use x="254.492188" xlink:href="#DejaVuSans-49"/>
     </g>
    </g>
   </g>
   <g id="text_21">
    <g clip-path="url(#p3f89326fc4)">
     <!-- 01011 -->
     <g transform="translate(154.460319 255.074154)scale(0.12 -0.12)">
      <use xlink:href="#DejaVuSans-48"/>
      <use x="63.623047" xlink:href="#DejaVuSans-49"/>
      <use x="127.246094" xlink:href="#DejaVuSans-48"/>
      <use x="190.869141" xlink:href="#DejaVuSans-49"/>
      <use x="254.492188" xlink:href="#DejaVuSans-49"/>
     </g>
    </g>
   </g>
   <g id="text_22">
    <g clip-path="url(#p3f89326fc4)">
     <!-- 01101 -->
     <g transform="translate(95.379891 208.260555)scale(0.12 -0.12)">
      <use xlink:href="#DejaVuSans-48"/>
      <use x="63.623047" xlink:href="#DejaVuSans-49"/>
      <use x="127.246094" xlink:href="#DejaVuSans-49"/>
      <use x="190.869141" xlink:href="#DejaVuSans-48"/>
      <use x="254.492188" xlink:href="#DejaVuSans-49"/>
     </g>
    </g>
   </g>
   <g id="text_23">
    <g clip-path="url(#p3f89326fc4)">
     <!-- 01111 -->
     <g transform="translate(28.394686 243.198183)scale(0.12 -0.12)">
      <use xlink:href="#DejaVuSans-48"/>
      <use x="63.623047" xlink:href="#DejaVuSans-49"/>
      <use x="127.246094" xlink:href="#DejaVuSans-49"/>
      <use x="190.869141" xlink:href="#DejaVuSans-49"/>
      <use x="254.492188" xlink:href="#DejaVuSans-49"/>
     </g>
    </g>
   </g>
   <g id="text_24">
    <g clip-path="url(#p3f89326fc4)">
     <!-- 11001 -->
     <g transform="translate(331.717597 253.122144)scale(0.12 -0.12)">
      <use xlink:href="#DejaVuSans-49"/>
      <use x="63.623047" xlink:href="#DejaVuSans-49"/>
      <use x="127.246094" xlink:href="#DejaVuSans-48"/>
      <use x="190.869141" xlink:href="#DejaVuSans-48"/>
      <use x="254.492188" xlink:href="#DejaVuSans-49"/>
     </g>
    </g>
   </g>
   <g id="text_25">
    <g clip-path="url(#p3f89326fc4)">
     <!-- 11011 -->
     <g transform="translate(233.250801 284.258958)scale(0.12 -0.12)">
      <use xlink:href="#DejaVuSans-49"/>
      <use x="63.623047" xlink:href="#DejaVuSans-49"/>
      <use x="127.246094" xlink:href="#DejaVuSans-48"/>
      <use x="190.869141" xlink:href="#DejaVuSans-49"/>
      <use x="254.492188" xlink:href="#DejaVuSans-49"/>
     </g>
    </g>
   </g>
   <g id="text_26">
    <g clip-path="url(#p3f89326fc4)">
     <!-- 11111 -->
     <g transform="translate(101.020589 285.420341)scale(0.12 -0.12)">
      <use xlink:href="#DejaVuSans-49"/>
      <use x="63.623047" xlink:href="#DejaVuSans-49"/>
      <use x="127.246094" xlink:href="#DejaVuSans-49"/>
      <use x="190.869141" xlink:href="#DejaVuSans-49"/>
      <use x="254.492188" xlink:href="#DejaVuSans-49"/>
     </g>
    </g>
   </g>
  </g>
 </g>
 <defs>
  <clipPath id="p3f89326fc4">
   <rect height="288" width="432" x="7.2" y="7.2"/>
  </clipPath>
 </defs>
</svg>
